<svg width="32" height="32" viewBox="0 0 32 32" fill="none" xmlns="http://www.w3.org/2000/svg">
<path d="M26.6266 19.8133L25.8666 14.2666C25.2399 9.63991 21.6666 6.05325 17.32 5.43992V4.01333C17.32 3.27999 16.72 2.67999 15.9866 2.67999C15.2533 2.67999 14.6533 3.27999 14.6533 4.01333V5.43992C10.3066 6.06659 6.75995 9.63991 6.11995 14.2666L5.35996 19.8133C5.15996 21.2533 5.58661 22.6933 6.53328 23.76C7.42661 24.7733 8.69329 25.3599 10.0266 25.3599H11.4266C11.72 27.5866 13.6133 29.32 15.92 29.32C18.2266 29.32 20.12 27.5866 20.4133 25.3599H21.92C23.2533 25.3599 24.52 24.7733 25.4133 23.76C26.36 22.68 26.7866 21.24 26.5866 19.8133H26.6266ZM15.9466 26.6666C15.1066 26.6666 14.4133 26.1199 14.1599 25.3733H17.7333C17.48 26.1199 16.7866 26.6666 15.9466 26.6666ZM23.44 22.0133C23.0533 22.4533 22.52 22.7066 21.9466 22.7066H10.04C9.46662 22.7066 8.94663 22.4667 8.54663 22.0133C8.11996 21.52 7.91995 20.84 8.01328 20.1733L8.77329 14.6266C9.27996 10.8533 12.3866 7.99998 16 7.99998C19.6133 7.99998 22.7066 10.8533 23.2266 14.6266L23.9866 20.1733C24.08 20.84 23.8799 21.52 23.4533 22.0133H23.44Z" fill="#A7B4CC"/>
</svg>
