<svg width="32" height="32" viewBox="0 0 32 32" fill="none" xmlns="http://www.w3.org/2000/svg">
<path d="M18.191 9.36163L23.6212 15.0721C23.7412 15.1959 23.8365 15.3431 23.9015 15.5053C23.9665 15.6675 24 15.8415 24 16.0172C24 16.1929 23.9665 16.3669 23.9015 16.5291C23.8365 16.6914 23.7412 16.8386 23.6212 16.9623L18.191 22.6063C18.072 22.731 17.9303 22.83 17.7742 22.8976C17.6182 22.9652 17.4508 23 17.2817 23C17.1126 23 16.9453 22.9652 16.7892 22.8976C16.6331 22.83 16.4915 22.731 16.3724 22.6063C16.1339 22.3569 16 22.0195 16 21.6678C16 21.3162 16.1339 20.9788 16.3724 20.7294L20.9061 16.0172L16.3724 11.3051C16.1358 11.0571 16.0024 10.7225 16.001 10.3733C16 10.1981 16.0323 10.0244 16.0961 9.86226C16.1598 9.70008 16.2537 9.55257 16.3724 9.42819C16.4872 9.29897 16.6255 9.19467 16.7792 9.12132C16.933 9.04797 17.0993 9.00701 17.2684 9.00082C17.4375 8.99463 17.6061 9.02334 17.7644 9.08526C17.9228 9.14719 18.0678 9.24113 18.191 9.36163Z" fill="#676A71"/>
<path d="M10.191 9.36163L15.6212 15.0721C15.7412 15.1959 15.8365 15.3431 15.9015 15.5053C15.9665 15.6675 16 15.8415 16 16.0172C16 16.1929 15.9665 16.3669 15.9015 16.5291C15.8365 16.6914 15.7412 16.8386 15.6212 16.9623L10.191 22.6063C10.072 22.731 9.93031 22.83 9.77424 22.8976C9.61818 22.9652 9.45078 23 9.28171 23C9.11265 23 8.94525 22.9652 8.78919 22.8976C8.63312 22.83 8.49148 22.731 8.37242 22.6063C8.13389 22.3569 8 22.0195 8 21.6678C8 21.3162 8.13389 20.9788 8.37242 20.7294L12.9061 16.0172L8.37242 11.3051C8.13582 11.0571 8.00243 10.7225 8.00102 10.3733C8.00004 10.1981 8.03235 10.0244 8.09608 9.86226C8.15981 9.70008 8.25372 9.55257 8.37242 9.42819C8.48719 9.29897 8.62546 9.19467 8.77924 9.12132C8.93302 9.04797 9.09927 9.00701 9.26836 9.00082C9.43746 8.99463 9.60606 9.02334 9.76442 9.08526C9.92279 9.14719 10.0678 9.24113 10.191 9.36163Z" fill="#676A71"/>
</svg>
