<svg width="32" height="32" viewBox="0 0 32 32" fill="none" xmlns="http://www.w3.org/2000/svg">
<path d="M13.809 9.36163L8.37883 15.0721C8.25879 15.1959 8.16351 15.3431 8.09849 15.5053C8.03348 15.6675 8 15.8415 8 16.0172C8 16.1929 8.03348 16.3669 8.09849 16.5291C8.16351 16.6914 8.25879 16.8386 8.37883 16.9623L13.809 22.6063C13.928 22.731 14.0697 22.83 14.2258 22.8976C14.3818 22.9652 14.5492 23 14.7183 23C14.8874 23 15.0547 22.9652 15.2108 22.8976C15.3669 22.83 15.5085 22.731 15.6276 22.6063C15.8661 22.3569 16 22.0195 16 21.6678C16 21.3162 15.8661 20.9788 15.6276 20.7294L11.0939 16.0172L15.6276 11.3051C15.8642 11.0571 15.9976 10.7225 15.999 10.3733C16 10.1981 15.9677 10.0244 15.9039 9.86226C15.8402 9.70008 15.7463 9.55257 15.6276 9.42819C15.5128 9.29897 15.3745 9.19467 15.2208 9.12132C15.067 9.04797 14.9007 9.00701 14.7316 9.00082C14.5625 8.99463 14.3939 9.02334 14.2356 9.08526C14.0772 9.14719 13.9322 9.24113 13.809 9.36163Z" fill="#676A71"/>
<path d="M21.809 9.36163L16.3788 15.0721C16.2588 15.1959 16.1635 15.3431 16.0985 15.5053C16.0335 15.6675 16 15.8415 16 16.0172C16 16.1929 16.0335 16.3669 16.0985 16.5291C16.1635 16.6914 16.2588 16.8386 16.3788 16.9623L21.809 22.6063C21.928 22.731 22.0697 22.83 22.2258 22.8976C22.3818 22.9652 22.5492 23 22.7183 23C22.8874 23 23.0547 22.9652 23.2108 22.8976C23.3669 22.83 23.5085 22.731 23.6276 22.6063C23.8661 22.3569 24 22.0195 24 21.6678C24 21.3162 23.8661 20.9788 23.6276 20.7294L19.0939 16.0172L23.6276 11.3051C23.8642 11.0571 23.9976 10.7225 23.999 10.3733C24 10.1981 23.9677 10.0244 23.9039 9.86226C23.8402 9.70008 23.7463 9.55257 23.6276 9.42819C23.5128 9.29897 23.3745 9.19467 23.2208 9.12132C23.067 9.04797 22.9007 9.00701 22.7316 9.00082C22.5625 8.99463 22.3939 9.02334 22.2356 9.08526C22.0772 9.14719 21.9322 9.24113 21.809 9.36163Z" fill="#676A71"/>
</svg>
