<svg width="24" height="25" viewBox="0 0 24 25" fill="none" xmlns="http://www.w3.org/2000/svg">
<path d="M19.81 18.85L16.91 15.95C18 14.55 18.59 12.84 18.59 11.04C18.59 8.88999 17.75 6.87 16.23 5.35C13.1 2.21 7.99001 2.21 4.86 5.35C1.72 8.49 1.72 13.59 4.86 16.72C6.38 18.24 8.4 19.08 10.55 19.08C12.37 19.08 14.1 18.47 15.5 17.37L18.4 20.27C18.6 20.47 18.85 20.56 19.11 20.56C19.37 20.56 19.62 20.46 19.82 20.27C20.21 19.88 20.21 19.25 19.82 18.86L19.81 18.85ZM6.27 15.31C3.91 12.95 3.91 9.11999 6.27 6.76999C7.45 5.58999 9 4.99999 10.54 4.99999C12.08 4.99999 13.63 5.58999 14.81 6.76999C15.99 7.94999 16.58 9.42999 16.58 11.04C16.58 12.65 15.95 14.17 14.81 15.31C13.67 16.45 12.15 17.08 10.54 17.08C8.93 17.08 7.41 16.45 6.27 15.31Z" fill="#D4D7DB"/>
</svg>
