<svg width="32" height="32" viewBox="0 0 32 32" fill="none" xmlns="http://www.w3.org/2000/svg">
<path d="M16 14.6667C19.3066 14.6667 22 11.9734 22 8.66669C22 5.36002 19.3066 2.66669 16 2.66669C12.6933 2.66669 9.99996 5.36002 9.99996 8.66669C9.99996 11.9734 12.6933 14.6667 16 14.6667ZM16 5.33335C17.84 5.33335 19.3333 6.82669 19.3333 8.66669C19.3333 10.5067 17.84 12 16 12C14.16 12 12.6666 10.5067 12.6666 8.66669C12.6666 6.82669 14.16 5.33335 16 5.33335Z" fill="#A7B4CC"/>
<path d="M20 16H12C9.05329 16 6.66663 18.3867 6.66663 21.3334V22.6667C6.66663 25.6134 9.05329 28 12 28H20C22.9466 28 25.3333 25.6134 25.3333 22.6667V21.3334C25.3333 18.3867 22.9466 16 20 16ZM22.6666 22.6667C22.6666 24.1334 21.4666 25.3334 20 25.3334H12C10.5333 25.3334 9.33329 24.1334 9.33329 22.6667V21.3334C9.33329 19.8667 10.5333 18.6667 12 18.6667H20C21.4666 18.6667 22.6666 19.8667 22.6666 21.3334V22.6667Z" fill="#A7B4CC"/>
</svg>
